<svg xmlns="http://www.w3.org/2000/svg" width="146.701" height="146.700" viewBox="0 0 146.701 146.700" fill="none">
  <path d="M 0 65.205 C 4.323 65.205 8.469 66.922 11.526 69.979 C 14.583 73.036 16.3 77.182 16.3 81.505 L 16.3 146.7 L 0 146.7 L 0 65.205 Z M 146.7 0 C 131.393 -0.001 116.396 4.308 103.424 12.433 C 90.451 20.559 80.029 32.172 73.35 45.945 C 66.671 32.172 56.249 20.558 43.277 12.432 C 30.305 4.307 15.307 -0.002 0 0 L 0 16.3 C 17.292 16.302 33.875 23.172 46.103 35.4 C 58.33 47.627 65.2 64.21 65.202 81.502 L 65.202 146.7 L 81.502 146.7 L 81.502 81.501 C 81.504 64.209 88.374 47.627 100.601 35.399 C 112.827 23.172 129.41 16.302 146.701 16.299 L 146.7 0 Z M 97.8 81.501 C 97.802 68.532 102.954 56.095 112.124 46.925 C 121.295 37.755 133.731 32.602 146.7 32.6 L 146.7 48.9 C 138.054 48.902 129.763 52.337 123.649 58.451 C 117.536 64.565 114.101 72.856 114.1 81.502 L 114.1 146.7 L 97.801 146.7 L 97.8 81.501 Z M 146.7 65.2 L 146.7 146.7 L 130.402 146.7 L 130.402 81.501 C 130.404 77.179 132.121 73.034 135.177 69.979 C 138.233 66.923 142.378 65.206 146.7 65.205 L 146.7 65.2 Z M 48.901 81.501 C 48.9 68.532 43.747 56.095 34.576 46.925 C 25.406 37.754 12.969 32.601 0 32.6 L 0 48.9 C 8.646 48.902 16.937 52.337 23.051 58.451 C 29.164 64.565 32.599 72.856 32.599 81.502 L 32.599 146.7 L 48.901 146.7 L 48.901 81.501 Z" fill="currentColor" fill-rule="evenodd"></path>
</svg>